<svg width="16" height="16" viewBox="0 0 16 16" fill="none" xmlns="http://www.w3.org/2000/svg">
<g clip-path="url(#clip0_303_6303)">
<rect width="16" height="16" rx="8" fill="#2E2E48"/>
<path d="M7.99968 11.75C7.4734 11.3011 6.98559 10.8089 6.54134 10.2787C5.87468 9.48246 5.08301 8.29663 5.08301 7.16663C5.08242 5.98644 5.79311 4.92221 6.88345 4.47054C7.9738 4.01888 9.22887 4.26881 10.063 5.10371C10.6115 5.6498 10.9188 6.39262 10.9164 7.16663C10.9164 8.29663 10.1247 9.48246 9.45801 10.2787C9.01377 10.8089 8.52595 11.3011 7.99968 11.75ZM7.99968 5.91663C7.55309 5.91663 7.14043 6.15488 6.91714 6.54163C6.69385 6.92838 6.69385 7.40488 6.91714 7.79163C7.14043 8.17838 7.55309 8.41663 7.99968 8.41663C8.69003 8.41663 9.24968 7.85698 9.24968 7.16663C9.24968 6.47627 8.69003 5.91663 7.99968 5.91663Z" fill="#D9DFE8"/>
</g>
<defs>
<clipPath id="clip0_303_6303">
<rect width="16" height="16" rx="8" fill="white"/>
</clipPath>
</defs>
</svg>
