<svg width="16" height="16" viewBox="0 0 16 16" fill="none" xmlns="http://www.w3.org/2000/svg">
<g clip-path="url(#clip0_303_6295)">
<rect width="16" height="16" rx="8" fill="#2E2E48"/>
<path d="M10.9159 11.3333C7.36111 11.3383 4.66319 8.60808 4.667 5.08434C4.667 4.85422 4.85354 4.66663 5.08366 4.66663H6.1834C6.38988 4.66663 6.5653 4.81835 6.59562 5.0226C6.66829 5.51212 6.81081 5.9887 7.01886 6.43775L7.06168 6.53017C7.12121 6.65867 7.08086 6.81135 6.96561 6.89366C6.62503 7.13687 6.49488 7.62644 6.7602 8.00844C7.09315 8.48781 7.51285 8.90742 7.99211 9.24022C8.37408 9.50546 8.86357 9.37532 9.10679 9.03481C9.18915 8.9195 9.34191 8.87913 9.47049 8.93869L9.56248 8.9813C10.0116 9.18933 10.4882 9.33187 10.9778 9.40452C11.182 9.43484 11.3337 9.61024 11.3337 9.81674V10.9166C11.3337 11.1467 11.1467 11.3333 10.9165 11.3333L10.9159 11.3333Z" fill="#E2E6EE"/>
</g>
<defs>
<clipPath id="clip0_303_6295">
<rect width="16" height="16" rx="8" fill="white"/>
</clipPath>
</defs>
</svg>
